<svg width="32" height="32" viewBox="0 0 32 32" fill="none" xmlns="http://www.w3.org/2000/svg">
<g id="ArrowCircleUp">
<path id="Vector" d="M16 3C13.4288 3 10.9154 3.76244 8.77759 5.1909C6.63975 6.61935 4.97351 8.64968 3.98957 11.0251C3.00563 13.4006 2.74819 16.0144 3.2498 18.5362C3.75141 21.0579 4.98953 23.3743 6.80762 25.1924C8.6257 27.0105 10.9421 28.2486 13.4638 28.7502C15.9856 29.2518 18.5995 28.9944 20.9749 28.0104C23.3503 27.0265 25.3807 25.3603 26.8091 23.2224C28.2376 21.0846 29 18.5712 29 16C28.9934 12.5542 27.6216 9.25145 25.1851 6.81491C22.7486 4.37837 19.4458 3.00661 16 3V3ZM20.95 15.95C20.8569 16.0437 20.7457 16.1175 20.6233 16.1669C20.5008 16.2163 20.3695 16.2403 20.2375 16.2375C20.1074 16.2401 19.9781 16.2159 19.8576 16.1665C19.7372 16.117 19.6283 16.0433 19.5375 15.95L17 13.4125V21C17 21.2652 16.8946 21.5196 16.7071 21.7071C16.5196 21.8946 16.2652 22 16 22C15.7348 22 15.4804 21.8946 15.2929 21.7071C15.1054 21.5196 15 21.2652 15 21V13.4125L12.4625 15.95C12.2723 16.1224 12.0231 16.215 11.7664 16.2086C11.5098 16.2023 11.2655 16.0976 11.0839 15.9161C10.9024 15.7345 10.7977 15.4902 10.7914 15.2336C10.785 14.9769 10.8776 14.7277 11.05 14.5375L15.2875 10.3C15.3812 10.2058 15.4913 10.1295 15.6125 10.075C15.8611 9.97489 16.1389 9.97489 16.3875 10.075C16.5087 10.1295 16.6188 10.2058 16.7125 10.3L20.95 14.5375C21.137 14.725 21.242 14.979 21.242 15.2437C21.242 15.5085 21.137 15.7625 20.95 15.95V15.95Z" fill="#9999FF"/>
</g>
</svg>
