<svg width="16" height="17" viewBox="0 0 16 17" fill="none" xmlns="http://www.w3.org/2000/svg">
<path d="M8 2C6.71443 2 5.45772 2.38122 4.3888 3.09545C3.31988 3.80968 2.48676 4.82484 1.99479 6.01256C1.50282 7.20028 1.37409 8.50721 1.6249 9.76809C1.8757 11.029 2.49477 12.1872 3.40381 13.0962C4.31285 14.0052 5.47104 14.6243 6.73192 14.8751C7.99279 15.1259 9.29973 14.9972 10.4874 14.5052C11.6752 14.0132 12.6903 13.1801 13.4046 12.1112C14.1188 11.0423 14.5 9.78558 14.5 8.5C14.4967 6.77711 13.8108 5.12573 12.5925 3.90746C11.3743 2.68918 9.7229 2.0033 8 2ZM11.2688 5.88125L9.51875 9.76875C9.46463 9.88128 9.37129 9.97018 9.25625 10.0188L5.54375 11.6125C5.48208 11.637 5.41636 11.6497 5.35 11.65C5.21698 11.6508 5.089 11.5991 4.99375 11.5063C4.92316 11.4357 4.87531 11.3455 4.85638 11.2475C4.83744 11.1495 4.84828 11.0481 4.8875 10.9563L6.48125 7.24375C6.52983 7.12872 6.61872 7.03537 6.73125 6.98125L10.6063 5.21875C10.6998 5.17763 10.8036 5.16577 10.904 5.18474C11.0044 5.2037 11.0967 5.2526 11.1688 5.325C11.2411 5.39584 11.2897 5.48747 11.3076 5.58716C11.3255 5.68684 11.3119 5.78963 11.2688 5.88125Z" fill="#616180"/>
</svg>
