<svg width="16" height="16" viewBox="0 0 16 16" fill="none" xmlns="http://www.w3.org/2000/svg">
<path d="M8 1.5C6.71443 1.5 5.45772 1.88122 4.3888 2.59545C3.31988 3.30968 2.48676 4.32484 1.99479 5.51256C1.50282 6.70028 1.37409 8.00721 1.6249 9.26809C1.8757 10.529 2.49477 11.6872 3.40381 12.5962C4.31285 13.5052 5.47104 14.1243 6.73192 14.3751C7.99279 14.6259 9.29973 14.4972 10.4874 14.0052C11.6752 13.5132 12.6903 12.6801 13.4046 11.6112C14.1188 10.5423 14.5 9.28558 14.5 8C14.4967 6.27711 13.8108 4.62573 12.5925 3.40746C11.3743 2.18918 9.7229 1.5033 8 1.5ZM11.2688 5.38125L9.51875 9.26875C9.46463 9.38128 9.37129 9.47018 9.25625 9.51875L5.54375 11.1125C5.48208 11.137 5.41636 11.1497 5.35 11.15C5.21698 11.1508 5.089 11.0991 4.99375 11.0063C4.92316 10.9357 4.87531 10.8455 4.85638 10.7475C4.83744 10.6495 4.84828 10.5481 4.8875 10.4563L6.48125 6.74375C6.52983 6.62872 6.61872 6.53537 6.73125 6.48125L10.6063 4.71875C10.6998 4.67763 10.8036 4.66577 10.904 4.68474C11.0044 4.7037 11.0967 4.7526 11.1688 4.825C11.2411 4.89584 11.2897 4.98747 11.3076 5.08716C11.3255 5.18684 11.3119 5.28963 11.2688 5.38125Z" fill="white"/>
</svg>
