<svg width="16" height="16" viewBox="0 0 16 16" fill="none" xmlns="http://www.w3.org/2000/svg">
<path d="M8 0C6.41775 0 4.87104 0.469192 3.55544 1.34824C2.23985 2.22729 1.21447 3.47672 0.608967 4.93853C0.00346625 6.40034 -0.15496 8.00888 0.153721 9.56072C0.462403 11.1126 1.22433 12.538 2.34315 13.6569C3.46197 14.7757 4.88743 15.5376 6.43928 15.8463C7.99113 16.155 9.59966 15.9965 11.0615 15.391C12.5233 14.7855 13.7727 13.7602 14.6518 12.4446C15.5308 11.129 16 9.58225 16 8C15.9959 5.87952 15.1518 3.84705 13.6524 2.34764C12.153 0.848227 10.1205 0.00406613 8 0ZM5.23077 5.53846C5.41334 5.53846 5.59181 5.5926 5.74361 5.69403C5.89541 5.79546 6.01372 5.93962 6.08358 6.10829C6.15345 6.27696 6.17173 6.46256 6.13611 6.64162C6.1005 6.82068 6.01258 6.98516 5.88349 7.11425C5.75439 7.24335 5.58992 7.33126 5.41086 7.36688C5.2318 7.4025 5.0462 7.38422 4.87753 7.31435C4.70886 7.24449 4.56469 7.12617 4.46326 6.97437C4.36183 6.82257 4.3077 6.64411 4.3077 6.46154C4.3077 6.21672 4.40495 5.98194 4.57806 5.80882C4.75117 5.63571 4.98596 5.53846 5.23077 5.53846ZM11.7308 10.1538C11.3527 10.8088 10.8089 11.3527 10.154 11.7308C9.49913 12.109 8.75623 12.308 8 12.308C7.24378 12.308 6.50088 12.109 5.84599 11.7308C5.19109 11.3527 4.64729 10.8088 4.26923 10.1538C4.22107 10.084 4.18788 10.0049 4.17175 9.92159C4.15562 9.83827 4.15689 9.75252 4.17549 9.66972C4.19409 9.58692 4.22961 9.50887 4.27982 9.44046C4.33004 9.37205 4.39386 9.31476 4.46728 9.2722C4.54069 9.22964 4.62212 9.20272 4.70644 9.19314C4.79076 9.18356 4.87615 9.19153 4.95724 9.21653C5.03834 9.24154 5.11338 9.28304 5.17766 9.33845C5.24194 9.39385 5.29407 9.46195 5.33077 9.53846C5.60179 10.0064 5.99105 10.3948 6.45953 10.6649C6.92802 10.9349 7.45926 11.0771 8 11.0771C8.54075 11.0771 9.07199 10.9349 9.54047 10.6649C10.009 10.3948 10.3982 10.0064 10.6692 9.53846C10.7571 9.41093 10.8899 9.32124 11.041 9.28729C11.1922 9.25334 11.3505 9.27764 11.4845 9.35532C11.6186 9.433 11.7183 9.55837 11.764 9.70638C11.8096 9.8544 11.7978 10.0142 11.7308 10.1538ZM12 7.07692H9.53847C9.37526 7.07692 9.21873 7.01209 9.10332 6.89668C8.98792 6.78127 8.92308 6.62475 8.92308 6.46154C8.92308 6.29833 8.98792 6.1418 9.10332 6.0264C9.21873 5.91099 9.37526 5.84615 9.53847 5.84615H12C12.1632 5.84615 12.3197 5.91099 12.4351 6.0264C12.5506 6.1418 12.6154 6.29833 12.6154 6.46154C12.6154 6.62475 12.5506 6.78127 12.4351 6.89668C12.3197 7.01209 12.1632 7.07692 12 7.07692Z" fill="#616180"/>
</svg>
