<svg width="16" height="16" viewBox="0 0 16 16" fill="none" xmlns="http://www.w3.org/2000/svg">
  <path d="M8 0.5C6.41775 0.5 4.87104 0.969192 3.55544 1.84824C2.23985 2.72729 1.21447 3.97672 0.608967 5.43853C0.00346625 6.90034 -0.15496 8.50887 0.153721 10.0607C0.462403 11.6126 1.22433 13.038 2.34315 14.1569C3.46197 15.2757 4.88743 16.0376 6.43928 16.3463C7.99113 16.655 9.59966 16.4965 11.0615 15.891C12.5233 15.2855 13.7727 14.2602 14.6518 12.9446C15.5308 11.629 16 10.0823 16 8.5C15.9959 6.37952 15.1518 4.34705 13.6524 2.84764C12.153 1.34823 10.1205 0.504066 8 0.5ZM5.23077 6.03846C5.41334 6.03846 5.59181 6.0926 5.74361 6.19403C5.89541 6.29546 6.01372 6.43962 6.08358 6.60829C6.15345 6.77696 6.17173 6.96256 6.13611 7.14162C6.1005 7.32068 6.01258 7.48516 5.88349 7.61425C5.75439 7.74335 5.58992 7.83126 5.41086 7.86688C5.2318 7.9025 5.0462 7.88422 4.87753 7.81435C4.70886 7.74448 4.56469 7.62617 4.46326 7.47437C4.36183 7.32257 4.3077 7.14411 4.3077 6.96154C4.3077 6.71672 4.40495 6.48194 4.57806 6.30882C4.75117 6.13571 4.98596 6.03846 5.23077 6.03846ZM11.7308 10.6538C11.3527 11.3088 10.8089 11.8527 10.154 12.2308C9.49913 12.609 8.75623 12.808 8 12.808C7.24378 12.808 6.50088 12.609 5.84599 12.2308C5.19109 11.8527 4.64729 11.3088 4.26923 10.6538C4.22107 10.584 4.18788 10.5049 4.17175 10.4216C4.15562 10.3383 4.15689 10.2525 4.17549 10.1697C4.19409 10.0869 4.22961 10.0089 4.27982 9.94046C4.33004 9.87205 4.39386 9.81476 4.46728 9.7722C4.54069 9.72964 4.62212 9.70272 4.70644 9.69314C4.79076 9.68356 4.87615 9.69153 4.95724 9.71653C5.03834 9.74154 5.11338 9.78304 5.17766 9.83845C5.24194 9.89385 5.29407 9.96195 5.33077 10.0385C5.60179 10.5064 5.99105 10.8948 6.45953 11.1649C6.92802 11.4349 7.45926 11.5771 8 11.5771C8.54075 11.5771 9.07199 11.4349 9.54047 11.1649C10.009 10.8948 10.3982 10.5064 10.6692 10.0385C10.7571 9.91093 10.8899 9.82124 11.041 9.78729C11.1922 9.75334 11.3505 9.77764 11.4845 9.85532C11.6186 9.933 11.7183 10.0584 11.764 10.2064C11.8096 10.3544 11.7978 10.5142 11.7308 10.6538ZM12 7.57692H9.53847C9.37526 7.57692 9.21873 7.51209 9.10332 7.39668C8.98792 7.28127 8.92308 7.12475 8.92308 6.96154C8.92308 6.79833 8.98792 6.6418 9.10332 6.5264C9.21873 6.41099 9.37526 6.34615 9.53847 6.34615H12C12.1632 6.34615 12.3197 6.41099 12.4351 6.5264C12.5506 6.6418 12.6154 6.79833 12.6154 6.96154C12.6154 7.12475 12.5506 7.28127 12.4351 7.39668C12.3197 7.51209 12.1632 7.57692 12 7.57692Z" fill="white"/>
</svg>
