<svg width="44" height="44" viewBox="0 0 44 44" fill="none" xmlns="http://www.w3.org/2000/svg">
<mask id="path-1-inside-1_27_12279" fill="white">
<path d="M44 22C44 26.3512 42.7097 30.6047 40.2923 34.2225C37.8749 37.8404 34.439 40.6602 30.419 42.3253C26.3991 43.9905 21.9756 44.4262 17.708 43.5773C13.4404 42.7284 9.52041 40.6331 6.44365 37.5563C3.3669 34.4796 1.2716 30.5596 0.422724 26.292C-0.426151 22.0244 0.00952239 17.6009 1.67465 13.581C3.33978 9.56099 6.15957 6.12506 9.77746 3.70767C13.3953 1.29028 17.6488 -5.18874e-08 22 0L22 4.87456C18.6129 4.87456 15.3019 5.87895 12.4856 7.76072C9.66935 9.64249 7.47434 12.3171 6.17816 15.4464C4.88197 18.5756 4.54283 22.019 5.20362 25.341C5.86441 28.663 7.49545 31.7145 9.89049 34.1095C12.2855 36.5045 15.337 38.1356 18.659 38.7964C21.981 39.4572 25.4244 39.118 28.5536 37.8218C31.6829 36.5257 34.3575 34.3306 36.2393 31.5144C38.121 28.6981 39.1254 25.3871 39.1254 22H44Z"/>
</mask>
<path d="M44 22C44 26.3512 42.7097 30.6047 40.2923 34.2225C37.8749 37.8404 34.439 40.6602 30.419 42.3253C26.3991 43.9905 21.9756 44.4262 17.708 43.5773C13.4404 42.7284 9.52041 40.6331 6.44365 37.5563C3.3669 34.4796 1.2716 30.5596 0.422724 26.292C-0.426151 22.0244 0.00952239 17.6009 1.67465 13.581C3.33978 9.56099 6.15957 6.12506 9.77746 3.70767C13.3953 1.29028 17.6488 -5.18874e-08 22 0L22 4.87456C18.6129 4.87456 15.3019 5.87895 12.4856 7.76072C9.66935 9.64249 7.47434 12.3171 6.17816 15.4464C4.88197 18.5756 4.54283 22.019 5.20362 25.341C5.86441 28.663 7.49545 31.7145 9.89049 34.1095C12.2855 36.5045 15.337 38.1356 18.659 38.7964C21.981 39.4572 25.4244 39.118 28.5536 37.8218C31.6829 36.5257 34.3575 34.3306 36.2393 31.5144C38.121 28.6981 39.1254 25.3871 39.1254 22H44Z" stroke="#9999FF" stroke-width="7.33333" mask="url(#path-1-inside-1_27_12279)"/>
</svg>
