<svg width="24" height="24" viewBox="0 0 24 24" fill="none" xmlns="http://www.w3.org/2000/svg">
<path d="M6 14C7.10457 14 8 13.1046 8 12C8 10.8954 7.10457 10 6 10C4.89543 10 4 10.8954 4 12C4 13.1046 4.89543 14 6 14Z" fill="#AFAFAF" stroke="#AFAFAF" stroke-width="1.5" stroke-linecap="round" stroke-linejoin="round"/>
<path d="M16.5 20.75C17.6046 20.75 18.5 19.8546 18.5 18.75C18.5 17.6454 17.6046 16.75 16.5 16.75C15.3954 16.75 14.5 17.6454 14.5 18.75C14.5 19.8546 15.3954 20.75 16.5 20.75Z" fill="#AFAFAF" stroke="#AFAFAF" stroke-width="1.5" stroke-linecap="round" stroke-linejoin="round"/>
<path d="M16.5 7.25C17.6046 7.25 18.5 6.35457 18.5 5.25C18.5 4.14543 17.6046 3.25 16.5 3.25C15.3954 3.25 14.5 4.14543 14.5 5.25C14.5 6.35457 15.3954 7.25 16.5 7.25Z" fill="#AFAFAF" stroke="#AFAFAF" stroke-width="1.5" stroke-linecap="round" stroke-linejoin="round"/>
<path d="M13.9777 6.87109L8.52148 10.3773" stroke="#AFAFAF" stroke-width="1.5" stroke-linecap="round" stroke-linejoin="round"/>
<path d="M8.52148 13.6211L13.9777 17.1273" stroke="#AFAFAF" stroke-width="1.5" stroke-linecap="round" stroke-linejoin="round"/>
</svg>
