<svg width="24" height="24" viewBox="0 0 24 24" fill="none" xmlns="http://www.w3.org/2000/svg">
<g id="Ellipse 14">
<mask id="path-1-inside-1_1034_28487" fill="white">
<path d="M24 12C24 14.3734 23.2962 16.6935 21.9776 18.6668C20.6591 20.6402 18.7849 22.1783 16.5922 23.0866C14.3995 23.9948 11.9867 24.2324 9.65892 23.7694C7.33114 23.3064 5.19295 22.1635 3.51472 20.4853C1.83649 18.8071 0.693599 16.6689 0.230577 14.3411C-0.232446 12.0133 0.00519403 9.60051 0.913446 7.4078C1.8217 5.21509 3.35977 3.34094 5.33316 2.02236C7.30655 0.703788 9.62662 -2.83022e-08 12 0L12 2.65885C10.1525 2.65885 8.34648 3.2067 6.81034 4.23312C5.27419 5.25954 4.07691 6.71843 3.3699 8.4253C2.66289 10.1322 2.47791 12.0104 2.83834 13.8224C3.19877 15.6344 4.08843 17.2988 5.39481 18.6052C6.70119 19.9116 8.36563 20.8012 10.1776 21.1617C11.9896 21.5221 13.8678 21.3371 15.5747 20.6301C17.2816 19.9231 18.7405 18.7258 19.7669 17.1897C20.7933 15.6535 21.3411 13.8475 21.3411 12H24Z"/>
</mask>
<path d="M24 12C24 14.3734 23.2962 16.6935 21.9776 18.6668C20.6591 20.6402 18.7849 22.1783 16.5922 23.0866C14.3995 23.9948 11.9867 24.2324 9.65892 23.7694C7.33114 23.3064 5.19295 22.1635 3.51472 20.4853C1.83649 18.8071 0.693599 16.6689 0.230577 14.3411C-0.232446 12.0133 0.00519403 9.60051 0.913446 7.4078C1.8217 5.21509 3.35977 3.34094 5.33316 2.02236C7.30655 0.703788 9.62662 -2.83022e-08 12 0L12 2.65885C10.1525 2.65885 8.34648 3.2067 6.81034 4.23312C5.27419 5.25954 4.07691 6.71843 3.3699 8.4253C2.66289 10.1322 2.47791 12.0104 2.83834 13.8224C3.19877 15.6344 4.08843 17.2988 5.39481 18.6052C6.70119 19.9116 8.36563 20.8012 10.1776 21.1617C11.9896 21.5221 13.8678 21.3371 15.5747 20.6301C17.2816 19.9231 18.7405 18.7258 19.7669 17.1897C20.7933 15.6535 21.3411 13.8475 21.3411 12H24Z" stroke="#9999FF" stroke-width="4" mask="url(#path-1-inside-1_1034_28487)"/>
</g>
</svg>
