<svg width="24" height="24" viewBox="0 0 24 24" fill="none" xmlns="http://www.w3.org/2000/svg">
<g clip-path="url(#clip0_958_216)">
<path d="M20.4878 0H3.5122C1.57246 0 0 1.57246 0 3.5122V20.4878C0 22.4275 1.57246 24 3.5122 24H20.4878C22.4275 24 24 22.4275 24 20.4878V3.5122C24 1.57246 22.4275 0 20.4878 0Z" fill="#D5FF5C"/>
<path fill-rule="evenodd" clip-rule="evenodd" d="M17.3027 13.0721C17.4806 13.4599 18.0045 13.5966 18.306 13.2951L18.8592 12.742C19.1336 12.4675 19.5058 12.3133 19.894 12.3132C20.2821 12.3132 20.6544 12.4674 20.9289 12.7418C21.2034 13.0163 21.3576 13.3885 21.3576 13.7766C21.3576 14.1648 21.2035 14.537 20.929 14.8115L16.4589 19.2817C15.385 20.556 13.7767 21.3659 11.9802 21.3659C10.1062 21.3659 8.43819 20.4855 7.36668 19.1154L3.06277 14.8118C2.79032 14.537 2.63783 14.1654 2.63868 13.7784C2.63952 13.3913 2.79364 13.0204 3.0673 12.7468C3.34095 12.4731 3.71187 12.319 4.09888 12.3182C4.48589 12.3173 4.85748 12.4698 5.13234 12.7423L5.67702 13.2866C5.97204 13.582 6.48453 13.4491 6.65868 13.0701C6.69346 12.9955 6.71163 12.9143 6.71194 12.8321V6.14635C6.71194 5.75823 6.86613 5.386 7.14057 5.11156C7.41501 4.83712 7.78724 4.68294 8.17536 4.68294C8.56348 4.68294 8.93571 4.83712 9.21015 5.11156C9.48459 5.386 9.63877 5.75823 9.63877 6.14635V9.52889C9.63877 9.81981 9.93672 10.0174 10.2142 9.92986C10.3898 9.87425 10.5168 9.71416 10.5168 9.53006V4.09757C10.5168 3.70945 10.671 3.33722 10.9454 3.06278C11.2199 2.78834 11.5921 2.63416 11.9802 2.63416C12.3684 2.63416 12.7406 2.78834 13.015 3.06278C13.2895 3.33722 13.4437 3.70945 13.4437 4.09757V9.53006C13.4437 9.71445 13.5704 9.87425 13.746 9.92957C14.0235 10.0174 14.3214 9.81981 14.3214 9.52859V6.14635C14.3214 5.75823 14.4756 5.386 14.75 5.11156C15.0245 4.83712 15.3967 4.68294 15.7848 4.68294C16.1729 4.68294 16.5452 4.83712 16.8196 5.11156C17.0941 5.386 17.2482 5.75823 17.2482 6.14635V12.8298C17.2482 12.9138 17.2676 12.9957 17.3027 13.0721V13.0721Z" fill="#FD4848"/>
<path d="M16.6632 16.0976C16.6632 16.0976 14.5664 19.0244 11.9803 19.0244C9.39385 19.0244 7.29736 16.0976 7.29736 16.0976C7.29736 16.0976 9.39385 13.1707 11.9803 13.1707C14.5664 13.1707 16.6632 16.0976 16.6632 16.0976Z" fill="#D5FF5C"/>
<path d="M14.1748 16.0976C14.1795 16.3888 14.1263 16.678 14.0181 16.9484C13.91 17.2188 13.7491 17.465 13.5448 17.6727C13.3406 17.8803 13.097 18.0452 12.8284 18.1577C12.5598 18.2703 12.2715 18.3282 11.9802 18.3282C11.689 18.3282 11.4007 18.2703 11.132 18.1577C10.8634 18.0452 10.6199 17.8803 10.4156 17.6727C10.2114 17.465 10.0505 17.2188 9.94234 16.9484C9.83419 16.678 9.78094 16.3888 9.78569 16.0976C9.79236 15.5199 10.0265 14.9681 10.4374 14.562C10.8482 14.1558 11.4027 13.9281 11.9804 13.9281C12.5581 13.9281 13.1125 14.1558 13.5234 14.562C13.9342 14.9681 14.1684 15.5199 14.1751 16.0976H14.1748Z" stroke="#FD4848" stroke-width="0.293561"/>
<path d="M13.2967 16.0976C13.2993 16.2721 13.2672 16.4454 13.2022 16.6075C13.1372 16.7695 13.0406 16.917 12.9181 17.0413C12.7956 17.1657 12.6496 17.2644 12.4886 17.3318C12.3275 17.3993 12.1547 17.434 11.9801 17.434C11.8055 17.434 11.6327 17.3993 11.4717 17.3318C11.3106 17.2644 11.1646 17.1657 11.0421 17.0413C10.9196 16.917 10.823 16.7695 10.758 16.6075C10.693 16.4454 10.6609 16.2721 10.6635 16.0976C10.6635 15.7483 10.8022 15.4134 11.0492 15.1665C11.2961 14.9195 11.631 14.7808 11.9803 14.7808C12.3295 14.7808 12.6644 14.9195 12.9114 15.1665C13.1583 15.4134 13.297 15.7483 13.297 16.0976H13.2967Z" stroke="#FD4848" stroke-width="0.293561"/>
<path d="M15.053 16.0976C15.053 17.7945 13.6774 19.1702 11.9804 19.1702C10.2831 19.1702 8.90723 17.7945 8.90723 16.0976C8.90723 14.4006 10.2831 13.0247 11.9804 13.0247C13.6774 13.0247 15.053 14.4003 15.053 16.0976V16.0976Z" stroke="#FD4848" stroke-width="0.293561"/>
<path d="M15.9308 16.0976C15.9308 18.2795 14.1621 20.0482 11.9802 20.0482C9.79822 20.0482 8.02954 18.2795 8.02954 16.0976C8.02954 13.9153 9.79822 12.1466 11.9802 12.1466C14.1621 12.1466 15.9311 13.9156 15.9311 16.0976H15.9308Z" stroke="#FD4848" stroke-width="0.293561"/>
<path d="M12.4188 16.0976C12.4203 16.1561 12.4101 16.2144 12.3887 16.2689C12.3674 16.3234 12.3353 16.3731 12.2944 16.4151C12.2536 16.457 12.2047 16.4904 12.1507 16.5131C12.0968 16.5359 12.0388 16.5476 11.9802 16.5476C11.9217 16.5476 11.8637 16.5359 11.8097 16.5131C11.7558 16.4904 11.7069 16.457 11.666 16.4151C11.6251 16.3731 11.5931 16.3234 11.5717 16.2689C11.5504 16.2144 11.5401 16.1561 11.5417 16.0976C11.5446 15.9832 11.5921 15.8745 11.674 15.7947C11.756 15.7148 11.8658 15.6702 11.9802 15.6702C12.0946 15.6702 12.2045 15.7148 12.2864 15.7947C12.3684 15.8745 12.4159 15.9832 12.4188 16.0976Z" fill="#FD4848" stroke="#FD4848" stroke-width="0.293561"/>
<path d="M7.50818 16.133C7.49907 16.1212 7.49 16.1094 7.48096 16.0976L7.50847 16.0619C7.88516 15.5846 8.30584 15.1437 8.76496 14.7451C9.60379 14.0213 10.7406 13.3174 11.9807 13.3174C13.2205 13.3174 14.3572 14.0213 15.1961 14.7451C15.6552 15.1438 16.0759 15.5848 16.4526 16.0621L16.4801 16.0973C16.3849 16.2205 16.2863 16.341 16.1845 16.4587C15.8793 16.8124 15.5489 17.1436 15.1961 17.4498C14.3575 18.1739 13.2205 18.8775 11.9807 18.8775C10.7406 18.8775 9.60379 18.1739 8.76525 17.4498C8.30604 17.0511 7.88527 16.6103 7.50847 16.133H7.50818Z" stroke="#D5FF5C" stroke-width="0.293561"/>
</g>
<defs>
<clipPath id="clip0_958_216">
<rect width="24" height="24" fill="white"/>
</clipPath>
</defs>
</svg>
