<svg width="255" height="187" viewBox="0 0 255 187" fill="none" xmlns="http://www.w3.org/2000/svg">
<path d="M33.6509 37.101L57.017 165.615C57.4773 168.147 59.7388 169.948 62.3093 169.83L193.498 163.812C196.02 163.696 198.085 161.766 198.37 159.257L212.413 35.5205C212.916 31.0884 207.922 28.1634 204.302 30.7706L167.203 57.495C164.959 59.1111 161.839 58.6627 160.142 56.4802L128.915 16.3321C126.67 13.4458 122.215 13.7607 120.398 16.9341L93.2956 64.2773C91.7487 66.9794 88.1736 67.6964 85.7043 65.7998L41.8384 32.1057C38.1091 29.2411 32.8097 32.4744 33.6509 37.101Z" fill="#F4900C"/>
<path d="M24.8162 158.897L2.04445 47.2829C1.38726 44.0618 5.20358 41.8536 7.66869 44.0287L40.4883 72.9872C42.1305 74.4362 44.692 73.9937 45.7529 72.0776L82.5999 5.5274C83.9172 3.14821 87.3481 3.17817 88.6237 5.58L122.91 70.1413C124.196 72.561 127.66 72.5686 128.956 70.1546L163.739 5.34694C165.001 2.99707 168.345 2.92545 169.705 5.21917L209.448 72.2147C210.552 74.0743 213.08 74.4598 214.688 73.0134L246.719 44.185C249.172 41.9776 253.021 44.1725 252.37 47.4075L229.963 158.804C226.745 174.802 212.691 186.311 196.372 186.311H58.3887C42.1054 186.311 28.0713 174.851 24.8162 158.897Z" fill="url(#paint0_linear_952_546)"/>
<circle cx="127.206" cy="125.492" r="26.1264" fill="#562AD5"/>
<circle cx="68.0996" cy="125.492" r="18.417" fill="#093679"/>
<circle cx="181.171" cy="127.206" r="18.417" fill="#093679"/>
<circle cx="17.9893" cy="130.204" r="13.7056" fill="#093679"/>
<circle cx="232.996" cy="130.204" r="13.7056" fill="#093679"/>
<defs>
<linearGradient id="paint0_linear_952_546" x1="127.634" y1="48.3981" x2="127.206" y2="186.311" gradientUnits="userSpaceOnUse">
<stop stop-color="#F7D079"/>
<stop offset="1" stop-color="#FFCC4D"/>
</linearGradient>
</defs>
</svg>
