<svg width="10" height="10" viewBox="0 0 10 10" fill="none" xmlns="http://www.w3.org/2000/svg">
<path d="M8.125 10H1.25C0.918479 10 0.600537 9.8683 0.366116 9.63388C0.131696 9.39946 0 9.08152 0 8.75V1.875C0 1.54348 0.131696 1.22554 0.366116 0.991116C0.600537 0.756696 0.918479 0.625 1.25 0.625H3.75V1.875H1.25V8.75H8.125V6.25H9.375V8.75C9.375 9.08152 9.2433 9.39946 9.00888 9.63388C8.77446 9.8683 8.45652 10 8.125 10ZM4.8125 6.06687L3.93125 5.18313L7.86438 1.25H5.625V0H10V4.375H8.75V2.13438L4.8125 6.06687Z" fill="#E2E8FF"/>
</svg>
