<svg width="201" height="190" viewBox="0 0 201 190" fill="none" xmlns="http://www.w3.org/2000/svg">
<path d="M190.75 100C190.75 88.181 188.422 76.4778 183.899 65.5585C179.376 54.6392 172.747 44.7177 164.39 36.3604C156.032 28.0031 146.111 21.3738 135.192 16.8508C124.272 12.3279 112.569 10 100.75 10C88.931 9.99999 77.2279 12.3279 66.3085 16.8508C55.3892 21.3737 45.4677 28.0031 37.1104 36.3604C28.7531 44.7176 22.1238 54.6391 17.6009 65.5584C13.0779 76.4777 10.75 88.181 10.75 100" stroke="#EAECF0" stroke-width="20" stroke-linecap="round" stroke-linejoin="round"/>
<path d="M10.75 100C10.75 80.9939 16.767 62.4756 27.9385 47.0993C39.11 31.723 54.8626 20.2781 72.9385 14.4049C91.0144 8.53169 110.486 8.5317 128.562 14.4049C146.637 20.2781 162.39 31.7231 173.562 47.0994" stroke="#56D99A" stroke-width="20" stroke-linecap="round" stroke-linejoin="round"/>
</svg>
